<svg width="100" height="100" viewBox="0 0 100 100" fill="none" xmlns="http://www.w3.org/2000/svg">
  <rect width="100" height="100" rx="30" fill="#FF2E50"/>
  <path d="M35 30C35 20 40 15 45 15C50 15 50 25 50 30V40H35V30Z" fill="white"/>
  <path d="M65 30C65 20 60 15 55 15C50 15 50 25 50 30V40H65V30Z" fill="white"/>
  <circle cx="50" cy="55" r="25" fill="white"/>
  <circle cx="42" cy="50" r="3" fill="#FF2E50"/>
  <circle cx="58" cy="50" r="3" fill="#FF2E50"/>
  <path d="M48 60C48 61.1046 48.8954 62 50 62C51.1046 62 52 61.1046 52 60" stroke="#FF2E50" stroke-width="2" stroke-linecap="round"/>
</svg>
